<svg xmlns="http://www.w3.org/2000/svg" width="600" height="600" viewBox="0 0 600 600">
<g>
<path d="M 213.11 490.99 C207.03,492.13 206.26,492.12 200.00,490.90 C187.46,488.45 174.29,477.65 169.98,466.28 C165.22,453.75 166.68,440.40 173.97,429.75 L 177.90 424.00 L 174.79 422.39 C170.29,420.06 162.55,412.54 159.05,407.07 C147.05,388.38 150.47,361.48 166.71,346.87 C171.47,342.58 178.01,338.69 183.25,337.03 C185.31,336.38 187.00,335.69 187.00,335.50 C187.00,335.31 182.98,317.00 178.06,294.82 C173.15,272.65 164.35,232.94 158.51,206.59 C152.67,180.23 147.40,157.73 146.80,156.59 C144.17,151.55 139.58,146.97 134.78,144.58 C129.66,142.03 129.36,142.00 106.05,141.99 C91.96,141.99 80.90,141.55 78.52,140.88 C67.10,137.71 62.35,123.67 69.74,114.89 C74.43,109.32 76.35,109.00 104.81,109.00 C127.31,109.00 131.69,109.26 138.41,110.98 C149.28,113.76 155.32,117.30 164.27,126.12 C175.22,136.94 178.39,144.09 184.40,171.50 C186.93,183.05 196.05,224.34 204.66,263.25 L 220.32 334.00 L 439.68 334.00 L 440.72 331.72 C441.29,330.46 448.33,313.70 456.37,294.47 C464.40,275.24 477.67,243.52 485.85,224.00 L 500.73 188.50 L 351.04 188.00 L 201.34 187.50 L 197.57 184.62 C192.79,180.98 190.65,176.00 191.23,169.91 C191.77,164.31 194.75,159.82 199.38,157.62 C202.49,156.15 216.82,156.00 357.24,156.00 L 511.68 156.00 L 517.80 159.06 C528.36,164.33 534.44,174.45 534.31,186.50 C534.24,193.17 533.58,195.08 520.22,227.00 C480.72,321.37 466.61,354.84 464.89,358.22 C463.85,360.26 461.32,363.07 459.26,364.47 L 455.54 367.00 L 326.02 367.02 C201.79,367.04 196.33,367.12 192.39,368.91 C189.34,370.30 187.74,371.91 186.14,375.20 C184.96,377.64 184.01,380.50 184.02,381.57 C184.07,385.59 187.78,391.70 191.63,394.10 L 195.50 396.50 L 471.15 397.50 L 474.51 401.16 C479.14,406.22 480.70,411.73 479.05,417.24 C477.57,422.18 472.03,427.84 467.87,428.68 L 464.99 429.25 L 466.90 432.38 C477.08,449.03 471.00,473.49 453.84,484.95 C433.08,498.81 403.95,489.06 394.98,465.25 C393.16,460.44 392.88,457.96 393.21,450.00 C393.59,440.96 394.24,438.62 398.78,429.75 C398.99,429.34 363.32,429.00 319.50,429.00 C275.68,429.00 240.00,429.34 240.21,429.75 C245.35,439.98 245.44,440.36 245.47,451.50 C245.50,461.38 245.23,463.08 242.82,468.22 C237.41,479.77 225.87,488.61 213.11,490.99 ZM 427.92 456.08 C431.39,459.55 432.85,459.69 436.37,456.93 C441.40,452.97 438.82,445.00 432.52,445.00 C430.07,445.00 428.58,445.72 427.07,447.63 C424.31,451.15 424.45,452.61 427.92,456.08 ZM 204.32 457.99 C205.52,458.48 206.87,458.90 207.32,458.94 C209.25,459.09 211.82,456.85 213.01,453.97 C214.15,451.23 214.06,450.56 212.30,448.19 C207.05,441.13 196.92,447.38 201.07,455.12 C201.65,456.22 203.11,457.51 204.32,457.99 Z" fill="rgb(0,0,0)"/>
<path d="M 0.00 0.00 L 600.00 0.00 L 600.00 600.00 L 0.00 600.00 ZM 1.00 1.00 L 1.00 599.00 L 599.00 599.00 L 599.00 1.00 Z" fill="rgb(154,154,154)"/>
<path d="M 1.00 300.00 L 1.00 1.00 L 300.00 1.00 L 599.00 1.00 L 599.00 300.00 L 599.00 599.00 L 300.00 599.00 L 1.00 599.00 L 1.00 300.00 ZM 213.11 490.99 C225.87,488.61 237.41,479.77 242.82,468.22 C245.23,463.08 245.50,461.38 245.47,451.50 C245.44,440.36 245.35,439.98 240.21,429.75 C240.00,429.34 275.68,429.00 319.50,429.00 C363.32,429.00 398.99,429.34 398.78,429.75 C394.24,438.62 393.59,440.96 393.21,450.00 C392.88,457.96 393.16,460.44 394.98,465.25 C403.95,489.06 433.08,498.81 453.84,484.95 C471.00,473.49 477.08,449.03 466.90,432.38 L 464.99 429.25 L 467.87 428.68 C472.03,427.84 477.57,422.18 479.05,417.24 C480.70,411.73 479.14,406.22 474.51,401.16 L 471.15 397.50 L 333.33 397.00 L 195.50 396.50 L 191.63 394.10 C187.78,391.70 184.07,385.59 184.02,381.57 C184.01,380.50 184.96,377.64 186.14,375.20 C187.74,371.91 189.34,370.30 192.39,368.91 C196.33,367.12 201.79,367.04 326.02,367.02 L 455.54 367.00 L 459.26 364.47 C461.32,363.07 463.85,360.26 464.89,358.22 C466.61,354.84 480.72,321.37 520.22,227.00 C533.58,195.08 534.24,193.17 534.31,186.50 C534.44,174.45 528.36,164.33 517.80,159.06 L 511.68 156.00 L 357.24 156.00 C216.82,156.00 202.49,156.15 199.38,157.62 C194.75,159.82 191.77,164.31 191.23,169.91 C190.65,176.00 192.79,180.98 197.57,184.62 L 201.34 187.50 L 351.04 188.00 L 500.73 188.50 L 485.85 224.00 C477.67,243.52 464.40,275.24 456.37,294.47 C448.33,313.70 441.29,330.46 440.72,331.72 L 439.68 334.00 L 330.00 334.00 L 220.32 334.00 L 204.66 263.25 C196.05,224.34 186.93,183.05 184.40,171.50 C178.39,144.09 175.22,136.94 164.27,126.12 C155.32,117.30 149.28,113.76 138.41,110.98 C131.69,109.26 127.31,109.00 104.81,109.00 C76.35,109.00 74.43,109.32 69.74,114.89 C62.35,123.67 67.10,137.71 78.52,140.88 C80.90,141.55 91.96,141.99 106.05,141.99 C129.36,142.00 129.66,142.03 134.78,144.58 C139.58,146.97 144.17,151.55 146.80,156.59 C147.40,157.73 152.67,180.23 158.51,206.59 C164.35,232.94 173.15,272.65 178.06,294.82 C182.98,317.00 187.00,335.31 187.00,335.50 C187.00,335.69 185.31,336.38 183.25,337.03 C178.01,338.69 171.47,342.58 166.71,346.87 C150.47,361.48 147.05,388.38 159.05,407.07 C162.55,412.54 170.29,420.06 174.79,422.39 L 177.90 424.00 L 173.97 429.75 C166.68,440.40 165.22,453.75 169.98,466.28 C174.29,477.65 187.46,488.45 200.00,490.90 C206.26,492.12 207.03,492.13 213.11,490.99 ZM 204.32 457.99 C203.11,457.51 201.65,456.22 201.07,455.12 C196.92,447.38 207.05,441.13 212.30,448.19 C214.06,450.56 214.15,451.23 213.01,453.97 C211.82,456.85 209.25,459.09 207.32,458.94 C206.87,458.90 205.52,458.48 204.32,457.99 ZM 427.92 456.08 C424.45,452.61 424.31,451.15 427.07,447.63 C428.58,445.72 430.07,445.00 432.52,445.00 C438.82,445.00 441.40,452.97 436.37,456.93 C432.85,459.69 431.39,459.55 427.92,456.08 Z" fill="rgb(254,254,254)"/>
</g>
</svg>